<svg xmlns="http://www.w3.org/2000/svg" xmlns:xlink="http://www.w3.org/1999/xlink" width="106.255" height="30" viewBox="0 0 106.255 30"><defs><clipPath id="a"><path d="M0-19.974H106.255v-30H0Z" transform="translate(0 49.974)" fill="#a27b63"/></clipPath></defs><g transform="translate(-1218.745 -900)"><g transform="translate(1218.745 900)" clip-path="url(#a)"><g transform="translate(73.343 0.083)"><path d="M-4.723-2.631-8.108,6.016a2.055,2.055,0,0,0-.184.717c0,.372.269.621.846.844h-4.37a2.1,2.1,0,0,0,1.4-1.3l5.7-12.864L.978,6.281a2.09,2.09,0,0,0,1.4,1.3h-4.37c.577-.223.846-.472.846-.844a1.93,1.93,0,0,0-.189-.717Z" transform="translate(11.816 6.583)" fill="#a27b63"/></g><g transform="translate(0 0)"><path d="M-5.2-.988c-3.215,0-5.293,2.243-5.293,5.645,0,3.439,1.992,5.695,5.25,5.695A5.571,5.571,0,0,0-.772,8.259l-.249,2.848a14.01,14.01,0,0,1-4.591.818,6.977,6.977,0,0,1-7.394-7.161A7,7,0,0,1-5.63-2.348a33.621,33.621,0,0,1,3.623.328.822.822,0,0,0,.78-.452v3.3S-2.206-.988-5.2-.988" transform="translate(13.006 2.472)" fill="#a27b63"/></g><g transform="translate(17.925 0.121)"><path d="M-4.582,0a6.626,6.626,0,0,0-6.883,7.027,6.945,6.945,0,0,0,6.883,7.248A6.924,6.924,0,0,0,2.271,7.027C2.271,2.864-.531,0-4.582,0M-4.67,12.725c-2.53,0-4.485-2.491-4.485-5.72,0-3.2,1.976-5.541,4.649-5.541,2.718,0,4.491,2.2,4.491,5.6,0,3.316-1.94,5.658-4.655,5.658" transform="translate(11.465)" fill="#a27b63"/></g><g transform="translate(36.623 0.108)"><path d="M-7.79-6.674V-14.09c0-1.479-.145-1.725-1.2-2.073H-4.91c-.95.453-1.014.621-1.014,2.1V-2.288l-10.495-9.975v7.7c0,1.34.164,1.59,1.3,2H-19.49c.838-.3,1.165-.664,1.165-1.984V-16.7Z" transform="translate(19.49 16.698)" fill="#a27b63"/></g><g transform="translate(57.329 0.687)"><path d="M-6.22-2.2A3.184,3.184,0,0,1-8.682,1.087l2.649,3.206A17.622,17.622,0,0,0-2.455,8.036H-5.4L-11.2.914C-9.8.623-8.5-.217-8.5-1.831a2.379,2.379,0,0,0-2.568-2.316,4.952,4.952,0,0,0-1.3.165V5.153c0,.951.01,2.517,1.272,2.888l-.346-.005H-15.23l-.333.005c1.33-.372,1.235-1.959,1.235-2.888V-2.612c0-.95.163-2.553-1.022-2.9h4.836c1.806,0,4.293.677,4.293,3.311" transform="translate(15.563 5.515)" fill="#a27b63"/></g><g transform="translate(91.267 0.684)"><path d="M-8.664-4.52c0-4.584-3.428-6.79-7.893-6.79h-5.119c1.159.408,1.215.7,1.215,2.022V.27c0,1.324-.3,1.674-1.215,1.979h4.386c5.308,0,8.626-2.416,8.626-6.77M-16.391.664H-17.4c-.843,0-1.13-.33-1.13-1.3V-9.977h1.956A5.158,5.158,0,0,1-11.1-4.471c0,3.191-2.184,5.135-5.294,5.135" transform="translate(21.676 11.31)" fill="#a27b63"/></g><g transform="translate(103.916 0.549)"><path d="M-.669-.761a.225.225,0,0,0,.118.034A.244.244,0,0,0-.424-.753c.068-.039.1-.124.1-.252a.27.27,0,0,0-.269-.3A.176.176,0,0,0-.669-1.3Zm0,.119v.136c0,.286.011.3.026.322s.038.021.113.021A.025.025,0,0,1-.5-.14a.029.029,0,0,1-.033.027H-.589C-.61-.113-.713-.119-.8-.119s-.171.006-.194.006h-.053a.025.025,0,0,1-.028-.024c0-.016.013-.023.033-.023.1,0,.121-.009.127-.091.006-.063.006-.148.006-.355V-.9c0-.2,0-.281,0-.355s-.047-.088-.139-.091a.024.024,0,0,1-.027-.026c0-.015.016-.021.036-.021h.05c.021,0,.125.006.2.006.065,0,.109-.006.21-.006a.59.59,0,0,1,.369.074.27.27,0,0,1,.115.231c0,.115-.038.222-.225.387.16.184.281.34.375.443.057.061.107.1.136.1s.031.011.031.027S.22-.113.19-.113H.12A.5.5,0,0,1-.094-.145a.9.9,0,0,1-.23-.248c-.068-.092-.136-.2-.169-.249ZM-.5.273A.979.979,0,0,0,.477-.746,1,1,0,0,0-.5-1.763.976.976,0,0,0-1.485-.746,1,1,0,0,0-.5.273M-1.673-.742A1.16,1.16,0,0,1-.5-1.9,1.135,1.135,0,0,1,.666-.742,1.156,1.156,0,0,1-.5.412,1.133,1.133,0,0,1-1.673-.742" transform="translate(1.673 1.903)" fill="#a27b63"/></g><g transform="translate(2.819 23.715)"><path d="M-.506-.531c-.106-.3-.173-.49-.3-.567a.685.685,0,0,0-.327-.068c-.086,0-.134-.029-.134-.086s.067-.077.193-.077c.432,0,.9.019.98.019s.49-.019.98-.019c.125,0,.182.019.182.077S1-1.166.917-1.166a.537.537,0,0,0-.211.039C.628-1.1.619-1.05.619-.963A4.713,4.713,0,0,0,.8-.214c.144.538.913,3.008,1.038,3.382h.029L3.483-1c.086-.23.173-.3.25-.3.1,0,.173.125.279.385L5.7,3.111h.029C5.895,2.64,6.538.488,6.837-.464a1.759,1.759,0,0,0,.086-.471c0-.134-.077-.231-.413-.231-.077,0-.145-.038-.145-.086s.067-.077.2-.077c.442,0,.827.019.9.019.058,0,.423-.019.7-.019.1,0,.154.019.154.068s-.038.1-.115.1a1.081,1.081,0,0,0-.3.039c-.2.077-.3.384-.471.855C7.048.756,6.183,3.352,5.77,4.572c-.1.288-.144.384-.269.384s-.173-.1-.3-.394L3.483.536h-.02C3.319.881,2.186,3.774,1.839,4.524c-.154.336-.2.432-.327.432-.106,0-.154-.086-.231-.3Z" transform="translate(1.265 1.329)" fill="#a27b63"/></g><g transform="translate(12.249 23.523)"><path d="M-1.516-2.873c-.048,0-.058.01-.077.058l-.451,1.1a1.469,1.469,0,0,0-.125.5c0,.144.077.231.337.231h.125c.106,0,.125.038.125.086,0,.067-.048.086-.134.086-.279,0-.673-.029-.942-.029-.086,0-.538.029-.98.029-.106,0-.154-.019-.154-.086a.084.084,0,0,1,.1-.086c.077,0,.173-.01.25-.01.385-.058.529-.308.7-.721l2.21-5.142c.1-.231.163-.327.25-.327.125,0,.163.077.25.259.2.451,1.615,3.8,2.153,5.036.327.74.567.846.72.875a2.036,2.036,0,0,0,.317.029c.077,0,.116.029.116.086s-.049.086-.366.086c-.3,0-.913,0-1.624-.019-.154-.01-.25-.01-.25-.067s.019-.077.105-.086a.128.128,0,0,0,.077-.182L.559-2.815a.08.08,0,0,0-.086-.058ZM.291-3.325c.038,0,.048-.019.038-.048l-.8-2.076c-.01-.028-.019-.076-.038-.076s-.038.048-.048.076l-.817,2.066c-.019.038,0,.058.029.058Z" transform="translate(3.794 7.188)" fill="#a27b63"/></g><g transform="translate(20.476 23.6)"><path d="M-.109-4.12c-.134-.058-.163-.1-.163-.279,0-.442.038-.951.048-1.086S-.186-5.7-.118-5.7s.086.077.086.134a1.521,1.521,0,0,0,.077.423,1.308,1.308,0,0,0,1.345.807A1.06,1.06,0,0,0,2.563-5.37c0-.355-.086-.711-.836-1.153l-.49-.289C.237-7.4-.09-7.945-.09-8.666c0-1,.961-1.643,2.134-1.643a4.984,4.984,0,0,1,1.2.134c.077.019.115.048.115.105,0,.106-.029.337-.029.981,0,.173-.038.259-.106.259s-.086-.048-.086-.144a.922.922,0,0,0-.221-.538A1.137,1.137,0,0,0,1.977-9.9c-.606,0-1.153.317-1.153.875,0,.365.134.653.894,1.076l.346.192c1.115.615,1.461,1.24,1.461,1.979a1.745,1.745,0,0,1-.846,1.528,2.465,2.465,0,0,1-1.413.336A3.6,3.6,0,0,1-.109-4.12" transform="translate(0.272 10.309)" fill="#a27b63"/></g><g transform="translate(26.205 23.715)"><path d="M-3.487-1.772c.019,0,.048-.01.048-.058V-2c0-1.24-.01-1.537-.019-1.8-.019-.279-.1-.365-.366-.442a1.517,1.517,0,0,0-.327-.029q-.144,0-.144-.086c0-.058.058-.077.182-.077.452,0,1.048.019,1.268.019.2,0,.759-.019,1.086-.019.125,0,.183.019.183.077s-.058.086-.154.086a1.417,1.417,0,0,0-.25.029c-.221.038-.288.154-.307.442-.019.26-.019.49-.019,1.73V-.629c0,.75,0,1.394.038,1.749.029.231.077.384.336.423a3.069,3.069,0,0,0,.433.029c.086,0,.134.048.134.086,0,.058-.067.086-.173.086-.548,0-1.105-.029-1.336-.029-.193,0-.788.029-1.115.029-.115,0-.182-.029-.182-.086,0-.038.038-.086.134-.086a1.283,1.283,0,0,0,.308-.029c.173-.038.221-.192.25-.432.038-.346.038-.971.038-1.72v-.625a.051.051,0,0,0-.048-.047H-6.678c-.029,0-.058.01-.058.047v.625c0,.75.01,1.375.048,1.73.029.231.077.384.327.423a3.164,3.164,0,0,0,.433.029c.1,0,.134.048.134.086,0,.058-.067.086-.173.086-.548,0-1.135-.029-1.375-.029-.192,0-.749.029-1.086.029-.106,0-.163-.029-.163-.086,0-.038.029-.086.134-.086a1.241,1.241,0,0,0,.3-.029c.173-.038.222-.192.25-.432.038-.346.038-.99.038-1.74V-2.07c0-1.24,0-1.47-.01-1.73-.019-.279-.1-.365-.366-.442a1.557,1.557,0,0,0-.336-.029c-.086,0-.144-.029-.144-.086s.067-.077.182-.077c.452,0,1.009.019,1.24.019.2,0,.788-.019,1.124-.019.115,0,.173.019.173.077s-.049.086-.154.086a1.238,1.238,0,0,0-.24.029c-.231.038-.3.154-.317.442-.019.26-.019.558-.019,1.8v.173a.051.051,0,0,0,.058.058Z" transform="translate(8.725 4.434)" fill="#a27b63"/></g><g transform="translate(35.615 23.715)"><path d="M-.493-1.574c0-1.24,0-1.47-.01-1.729-.019-.279-.106-.375-.288-.433A1.083,1.083,0,0,0-1.1-3.775c-.086,0-.134-.019-.134-.1,0-.048.067-.067.2-.067.317,0,.893.019,1.134.019.211,0,.759-.019,1.086-.019.106,0,.173.019.173.067,0,.077-.048.1-.134.1a1.174,1.174,0,0,0-.25.029c-.231.038-.3.154-.317.442-.019.259-.019.49-.019,1.729V-.133c0,.788,0,1.442.038,1.788.029.222.086.346.337.385a3.155,3.155,0,0,0,.432.029c.1,0,.134.047.134.086,0,.058-.067.086-.163.086-.558,0-1.134-.029-1.365-.029-.192,0-.768.029-1.1.029-.106,0-.163-.029-.163-.086,0-.039.028-.086.134-.086a1.248,1.248,0,0,0,.3-.029c.173-.038.221-.154.25-.394.038-.336.038-.99.038-1.778Z" transform="translate(1.233 3.938)" fill="#a27b63"/></g><g transform="translate(40.238 23.571)"><path d="M-1.011-3.468c.019.635.125.827.288.884a1.438,1.438,0,0,0,.442.058c.1,0,.144.038.144.086,0,.067-.077.086-.192.086-.548,0-.942-.029-1.1-.029-.077,0-.481.029-.913.029-.115,0-.192-.01-.192-.086,0-.048.058-.086.134-.086a1.739,1.739,0,0,0,.384-.038c.221-.058.25-.279.259-.99L-1.674-8.4c0-.163.057-.279.144-.279.106,0,.221.125.365.269C-1.059-8.3.21-7,1.44-5.8c.577.567,1.7,1.72,1.826,1.836H3.3L3.218-7.6c-.01-.5-.086-.644-.288-.72a1.4,1.4,0,0,0-.442-.049c-.106,0-.134-.038-.134-.086,0-.068.087-.077.211-.077.442,0,.894.019,1.077.019.1,0,.413-.019.826-.019.115,0,.193.01.193.077,0,.047-.049.086-.145.086a.841.841,0,0,0-.259.029c-.231.067-.3.211-.307.672l-.1,5.151c0,.182-.067.259-.135.259a.5.5,0,0,1-.346-.173C2.843-2.92,1.786-3.929.9-4.785-.021-5.669-.915-6.659-1.078-6.8h-.029Z" transform="translate(2.529 8.677)" fill="#a27b63"/></g><g transform="translate(49.254 23.6)"><path d="M-4.05-3.826c0,.221,0,.231-.106.288a5.1,5.1,0,0,1-2.066.365c-2.076,0-3.912-.941-3.912-3.2a3.023,3.023,0,0,1,1.48-2.671,4.231,4.231,0,0,1,2.278-.528,9.645,9.645,0,0,1,1.5.134,6.583,6.583,0,0,0,.673.086c.1.01.115.039.115.1a11.083,11.083,0,0,0-.058,1.345c0,.125-.048.182-.115.182s-.077-.038-.086-.106a1.089,1.089,0,0,0-.288-.673,2.623,2.623,0,0,0-1.836-.624,2.374,2.374,0,0,0-1.634.48,2.38,2.38,0,0,0-.779,1.989A2.836,2.836,0,0,0-5.944-3.625a1.387,1.387,0,0,0,.6-.086A.27.27,0,0,0-5.184-4v-.749c0-.4,0-.711-.01-.961-.01-.279-.1-.365-.366-.442a1.517,1.517,0,0,0-.327-.029c-.077,0-.134-.038-.134-.087,0-.067.067-.076.182-.076.442,0,1.048.019,1.3.019.27,0,.711-.019.99-.019.116,0,.173.01.173.076a.1.1,0,0,1-.106.087,1.153,1.153,0,0,0-.231.029c-.231.038-.317.154-.327.442-.01.25-.01.577-.01.98Z" transform="translate(10.134 9.573)" fill="#a27b63"/></g><g transform="translate(57.396 23.599)"><path d="M-1.593-.41l-1.259.029c-.49.01-.692.067-.817.25a.955.955,0,0,0-.144.279c-.019.068-.038.106-.1.106S-3.986.206-3.986.119c0-.134.163-.923.182-.99.019-.106.048-.154.1-.154.067,0,.154.067.366.1A7.923,7.923,0,0,0-2.5-.891H.934a3.75,3.75,0,0,0,.577-.038c.134-.019.2-.038.231-.038.058,0,.067.048.067.173,0,.173-.019.779-.019.991-.01.086-.029.134-.077.134-.067,0-.086-.039-.1-.164L1.607.08c-.019-.211-.24-.461-1-.471L-.459-.41V2.9c0,.75.01,1.393.048,1.749.029.231.077.384.327.423A3.17,3.17,0,0,0,.348,5.1c.1,0,.134.048.134.086,0,.058-.067.086-.163.086-.558,0-1.124-.029-1.365-.029-.192,0-.768.029-1.1.029-.106,0-.164-.029-.164-.086,0-.038.029-.086.134-.086a1.2,1.2,0,0,0,.3-.029c.173-.038.221-.192.25-.432.038-.346.038-.99.038-1.74Z" transform="translate(3.986 1.025)" fill="#a27b63"/></g><g transform="translate(64.663 23.6)"><path d="M0-2.131a3.235,3.235,0,0,1,3.546-3.2c2.134,0,3.46,1.182,3.46,3.056A3.3,3.3,0,0,1,3.46,1.07,3.188,3.188,0,0,1,0-2.131m5.747.154C5.747-3.784,4.661-4.9,3.3-4.9c-.942,0-2.047.5-2.047,2.518C1.249-.7,2.21.627,3.805.627c.6,0,1.941-.279,1.941-2.6" transform="translate(0 5.331)" fill="#a27b63"/></g><g transform="translate(73.217 23.571)"><path d="M-1.011-3.468c.019.635.125.827.288.884a1.438,1.438,0,0,0,.442.058c.1,0,.144.038.144.086,0,.067-.077.086-.192.086-.548,0-.942-.029-1.1-.029-.077,0-.481.029-.913.029-.115,0-.192-.01-.192-.086,0-.048.058-.086.134-.086a1.739,1.739,0,0,0,.384-.038c.221-.058.25-.279.259-.99L-1.674-8.4c0-.163.057-.279.144-.279.106,0,.221.125.365.269C-1.059-8.3.21-7,1.44-5.8c.577.567,1.7,1.72,1.826,1.836H3.3L3.218-7.6c-.01-.5-.086-.644-.288-.72a1.4,1.4,0,0,0-.442-.049c-.106,0-.134-.038-.134-.086,0-.068.087-.077.211-.077.442,0,.894.019,1.077.019.1,0,.413-.019.826-.019.115,0,.193.01.193.077,0,.047-.049.086-.145.086a.841.841,0,0,0-.259.029c-.231.067-.3.211-.307.672l-.1,5.151c0,.182-.067.259-.135.259a.5.5,0,0,1-.346-.173C2.843-2.92,1.786-3.929.9-4.785-.021-5.669-.915-6.659-1.078-6.8h-.029Z" transform="translate(2.529 8.677)" fill="#a27b63"/></g><g transform="translate(86.241 23.715)"><path d="M-.57-1.574c0-1.24,0-1.47-.01-1.729-.019-.279-.1-.366-.365-.442a1.56,1.56,0,0,0-.337-.029c-.086,0-.144-.029-.144-.086s.067-.077.192-.077c.442,0,.98.019,1.22.019.26,0,.865-.019,1.375-.019a4.61,4.61,0,0,1,3.4.932,2.862,2.862,0,0,1,.8,2.076,3.166,3.166,0,0,1-.923,2.278A3.944,3.944,0,0,1,1.8,2.309c-.307,0-.672-.029-1.009-.048S.151,2.213-.06,2.213c-.1,0-.279.01-.481.01s-.413.019-.586.019c-.106,0-.163-.029-.163-.086,0-.039.028-.086.134-.086a1.248,1.248,0,0,0,.3-.029c.173-.038.221-.193.25-.433.038-.346.038-.99.038-1.74Zm1.134.9C.564.195.574.819.584.983a1.489,1.489,0,0,0,.1.576c.106.154.442.327,1.105.327A2.667,2.667,0,0,0,3.63,1.329,2.5,2.5,0,0,0,4.351-.7a2.661,2.661,0,0,0-.788-2.037A3.414,3.414,0,0,0,1.2-3.515a1.77,1.77,0,0,0-.519.058.143.143,0,0,0-.106.163c-.01.279-.01.951-.01,1.6Z" transform="translate(1.425 3.938)" fill="#a27b63"/></g><g transform="translate(95.123 23.6)"><path d="M-.7-3.673A3.024,3.024,0,0,1-1.761-6.085a3.04,3.04,0,0,1,.99-2.239A3.811,3.811,0,0,1,1.91-9.189,8.678,8.678,0,0,1,3.14-9.1c.318.048.6.106.846.134.1.01.125.048.125.1,0,.067-.019.163-.038.452-.019.269-.019.72-.029.884-.01.115-.038.2-.115.2s-.086-.068-.086-.173a1.151,1.151,0,0,0-.327-.759,2.392,2.392,0,0,0-1.634-.481,2.276,2.276,0,0,0-1.6.462A2.649,2.649,0,0,0-.493-6.162,2.724,2.724,0,0,0,2.141-3.3c.749,0,1.163-.058,1.5-.432a1.321,1.321,0,0,0,.288-.548c.019-.125.038-.163.106-.163s.1.077.1.144a7.23,7.23,0,0,1-.182,1.086.285.285,0,0,1-.221.24A4.944,4.944,0,0,1,2.2-2.788,4.342,4.342,0,0,1-.7-3.673" transform="translate(1.761 9.189)" fill="#a27b63"/></g></g></g></svg>