<svg xmlns="http://www.w3.org/2000/svg" xmlns:xlink="http://www.w3.org/1999/xlink" width="181.745" height="721.375" viewBox="0 0 181.745 721.375"><defs><linearGradient id="a" x2="1.014" y2="0.869" gradientUnits="objectBoundingBox"><stop offset="0" stop-color="#8b5b3c"/><stop offset="0.498" stop-color="#a86d46"/><stop offset="1" stop-color="#d5ad90"/></linearGradient></defs><g transform="translate(-23.491 -24.125)"><path d="M613.3,180.736,575.841,95c-7.2.652-16.285.565-16.285.565v85.175h-15.6V0h15.6S574.05-.139,580.94,1.246c15.523,3.121,28.1,23.35,28.524,45.546h.013c0,.28.027.565.027.842,0,.047,0,.1,0,.147s0,.1,0,.15c0,.276-.024.563-.027.84h-.013c-.327,17.284-8.033,33.34-18.764,41.085l39.838,90.879ZM559.556,62.816V94.064H566.5c18.715,0,27.355-22.824,27.39-46.282C593.857,24.325,585.216,1.5,566.5,1.5h-6.945Zm-64.881,117.92-20.784-85.17H446.027l-19.879,85.17h-1.475L466.694,0l43.6,180.732ZM446.358,94.069h27.214L459.516,37.516Zm-131.689,32.9V0h15.845V122.363c0,23.043.03,56.888,28.437,56.888,43.37,0,42.8-52.284,42.8-52.284V0h1.484V126.967s-.228,53.769-44.28,53.769C315.8,180.736,314.669,126.967,314.669,126.967ZM96.657,156.288l-.02-.06c-.29-.922-.41-1.475-.41-1.475h.018a20.687,20.687,0,0,1-.588-4.821h2.269a20.71,20.71,0,0,0,.8,5.678c1.32,4.229,8.652,22.865,35.425,22.865,16.72,0,40.441-9.939,40.441-47.441,0-22.366-20.786-37.051-32.306-43.375-21.916-12.2-46.059-23.148-46.059-48.776C96.227,16.536,112.546,0,135.736,0c23.314,0,32.276,14.921,35.18,21.843h0c.015.035.024.067.04.1.207.5.382.955.529,1.36.088.237.176.483.253.725.267.8.385,1.275.385,1.275h-.02a19.4,19.4,0,0,1,.583,4.824h-2.273a18.572,18.572,0,0,0-.952-6.016c-1.747-4.774-9.827-22.529-33.5-22.529-17.623,0-34.32,11.68-32.305,34.113,1.779,19.819,26.312,27.632,43.936,37.346,14.681,8.358,35.587,21.467,35.587,55.732,0,32.29-21.7,51.96-49.026,51.96C106.452,180.736,98.422,161.851,96.657,156.288Zm576.321,24.447,0-123.331L639.134,0h18.132l30.484,51.775L718.195,0H720L688.61,53.24l.03.05-.03,127.446Zm-443.056,0V1.481H193.566V0H281.9V1.481H245.542V180.735ZM0,180.735V0H76.362V1.481H15.847V93.994H76.362v1.483H15.847v83.775H76.362v1.482Z" transform="translate(24 745) rotate(-90)" stroke="rgba(0,0,0,0)" stroke-width="1" fill="url(#a)"/></g></svg>