<svg xmlns="http://www.w3.org/2000/svg" xmlns:xlink="http://www.w3.org/1999/xlink" width="172" height="44.375" viewBox="0 0 172 44.375"><defs><linearGradient id="a" x1="0.05" y1="1.573" x2="0.608" y2="-0.454" gradientUnits="objectBoundingBox"><stop offset="0" stop-color="#8b5b3c"/><stop offset="0.498" stop-color="#a86d46"/><stop offset="1" stop-color="#d5ad90"/></linearGradient></defs><path d="M2,2.1H19.99V3.3H5.6V23.688H19.99v1.2H5.6V44.076H19.99v1.2H2ZM36.876,19.106c-3.11-1.714-9-4.326-9.384-8.606a6.9,6.9,0,0,1,6.976-7.8A7.628,7.628,0,0,1,41.7,8a4.008,4.008,0,0,1,.206,1.3h1.342a4.6,4.6,0,0,0-.139-1.15h0s-.029-.114-.092-.3c-.018-.058-.04-.116-.06-.174-.035-.1-.077-.2-.127-.324l-.008-.024h0a8.848,8.848,0,0,0-8.4-5.819c-5.54,0-9.439,4.55-9.439,9.89,0,6.121,7.086,10.4,10.953,12.553,2.033,1.117,6.872,5.079,6.872,9.909,0,8.1-5.124,10.824-8.733,10.824a7.652,7.652,0,0,1-7.65-5.517,3.473,3.473,0,0,1-.173-1.079H24.851a3.653,3.653,0,0,0,.142.989h0s.029.132.1.351l0,.014a8.94,8.94,0,0,0,8.957,6.44c6.527,0,11.711-5.3,11.711-13.013C45.759,24.677,39.468,20.581,36.876,19.106ZM48.774,3.3h8.4V45.275h3.6V3.3h8.4V2.1H48.774ZM96.747,29.684c0,2.4.55,14.392-9.81,14.392-6.786,0-6.793-9.487-6.793-14.992V2.1H76.358V31.231s.27,14.044,10.578,14.044c10.524,0,11.01-11.993,11.01-14.044V2.1h-1.2Zm45.946-6.118,9.518,21.709h-4.117l-8.949-20.482c-1.721.156-4.019.136-4.019.136V45.275h-3.6V2.1h3.726a35.009,35.009,0,0,1,5.108.3c3.71.745,6.714,5.578,6.815,10.88h0c0,.066.007.134.007.2v.071c0,.067-.006.134-.007.2h0C147.1,17.88,145.257,21.716,142.693,23.566Zm-5.781.121c4.471,0,6.535-4.569,6.544-10.173-.008-5.6-2.072-10.216-6.544-10.216h-1.787V23.688Zm-16.74,21.588h4.159L113.488,1.5,103.343,45.275h1.231l4.447-19.189h6.44Zm-8.023-32.684,3.019,12.3H109.3ZM174,2.1h-1.39l-6.8,11.548L159.013,2.1h-4.332l8.028,13.712V45.275h3.6v-30.1l7.662-13.02Z" transform="translate(-2 -1.5)" fill="url(#a)"/></svg>